<svg xmlns="http://www.w3.org/2000/svg" width="49" height="60" viewBox="0 0 49 60">
    <path fill="none" fill-rule="nonzero" stroke="#8E929B" stroke-dasharray="5,5,5" stroke-linecap="round" stroke-width="2.8" d="M40.212 34.308l-7.954-2.378-.164-.41c-.082-.328-.41-.656-.82-.984l-.82-.574.656-.738a17.665 17.665 0 0 0 1.476-1.886 22.151 22.151 0 0 0 2.214-4.1c.246-.574.492-1.148.656-1.722l.082-.246.164-.164c.574-.492.82-1.148.82-1.804v-2.378c0-.492-.164-.984-.41-1.394l-.164-.246v-3.608c0-5.33-4.346-9.676-9.676-9.676h-3.444c-5.33 0-9.676 4.346-9.676 9.676v3.608l-.164.246c-.328.41-.41.902-.41 1.394v2.378c0 .656.328 1.394.82 1.804l.164.164.082.246c.164.574.41 1.148.656 1.722a22.151 22.151 0 0 0 2.214 4.1c.492.656.984 1.312 1.476 1.886l.656.738-.82.574c-.41.328-.738.656-.82.984l-.164.41-7.954 2.378C6.592 34.964 4.05 41.606 2 52.102a44.292 44.292 0 0 0 22.468 6.15c.984 0 1.968 0 2.952-.082 6.97-.492 13.694-2.542 19.68-6.068-1.968-10.332-4.592-17.138-6.888-17.794z"/>
</svg>
